<svg width="23" height="22" viewBox="0 0 23 22" fill="none" xmlns="http://www.w3.org/2000/svg">
<path d="M20.5 7C21.6046 7 22.5 7.89543 22.5 9V13C22.5 14.1046 21.6046 15 20.5 15H19.4381C18.946 18.9463 15.5796 22 11.5 22V20C14.8137 20 17.5 17.3137 17.5 14V8C17.5 4.68629 14.8137 2 11.5 2C8.18629 2 5.5 4.68629 5.5 8V15H2.5C1.39543 15 0.5 14.1046 0.5 13V9C0.5 7.89543 1.39543 7 2.5 7H3.56189C4.05399 3.05369 7.42038 0 11.5 0C15.5796 0 18.946 3.05369 19.4381 7H20.5ZM7.25944 14.7849L8.31958 13.0887C9.24161 13.6662 10.3318 14 11.5 14C12.6682 14 13.7584 13.6662 14.6804 13.0887L15.7406 14.7849C14.5112 15.5549 13.0576 16 11.5 16C9.9424 16 8.48882 15.5549 7.25944 14.7849Z" fill="white"/>
</svg>
