<svg width="64" height="64" viewBox="0 0 64 64" fill="none" xmlns="http://www.w3.org/2000/svg">
<rect width="64" height="64" rx="16" fill="#203ECA"/>
<path d="M41.3333 27.9998C41.3333 29.9332 40.76 31.7065 39.7733 33.1865C38.3333 35.3199 36.0533 36.8265 33.4 37.2132C32.9467 37.2932 32.48 37.3332 32 37.3332C31.52 37.3332 31.0533 37.2932 30.6 37.2132C27.9467 36.8265 25.6667 35.3199 24.2267 33.1865C23.24 31.7065 22.6667 29.9332 22.6667 27.9998C22.6667 22.8398 26.84 18.6665 32 18.6665C37.16 18.6665 41.3333 22.8398 41.3333 27.9998Z" stroke="white" stroke-width="1.5" stroke-linecap="round" stroke-linejoin="round"/>
<path d="M44.3333 40.6269L42.1333 41.1469C41.64 41.2669 41.2533 41.6402 41.1467 42.1335L40.68 44.0935C40.4267 45.1602 39.0667 45.4802 38.36 44.6402L32 37.3335L25.64 44.6535C24.9333 45.4935 23.5733 45.1735 23.32 44.1069L22.8533 42.1469C22.7333 41.6535 22.3467 41.2669 21.8667 41.1602L19.6667 40.6402C18.6533 40.4002 18.2933 39.1335 19.0267 38.4002L24.2267 33.2002C25.6667 35.3335 27.9467 36.8402 30.6 37.2269C31.0533 37.3069 31.52 37.3469 32 37.3469C32.48 37.3469 32.9467 37.3069 33.4 37.2269C36.0533 36.8402 38.3333 35.3335 39.7733 33.2002L44.9733 38.4002C45.7067 39.1202 45.3467 40.3869 44.3333 40.6269Z" stroke="white" stroke-width="1.5" stroke-linecap="round" stroke-linejoin="round"/>
<path d="M32.7733 23.9735L33.56 25.5468C33.6667 25.7602 33.9467 25.9735 34.2 26.0135L35.6267 26.2535C36.5333 26.4002 36.7467 27.0668 36.0933 27.7202L34.9867 28.8268C34.8 29.0135 34.6933 29.3735 34.76 29.6402L35.08 31.0135C35.3333 32.0935 34.76 32.5201 33.8 31.9468L32.4667 31.1601C32.2267 31.0135 31.8267 31.0135 31.5867 31.1601L30.2533 31.9468C29.2933 32.5068 28.72 32.0935 28.9733 31.0135L29.2933 29.6402C29.3467 29.3868 29.2533 29.0135 29.0667 28.8268L27.96 27.7202C27.3067 27.0668 27.52 26.4135 28.4267 26.2535L29.8533 26.0135C30.0933 25.9735 30.3733 25.7602 30.48 25.5468L31.2667 23.9735C31.6533 23.1202 32.3467 23.1202 32.7733 23.9735Z" stroke="white" stroke-width="1.5" stroke-linecap="round" stroke-linejoin="round"/>
</svg>
