<svg width="87" height="38" viewBox="0 0 87 38" fill="none" xmlns="http://www.w3.org/2000/svg">
<path d="M18.8203 24.4297V29H4.50391V24.4297H18.8203ZM6.39844 0.5625V29H0.539062V0.5625H6.39844ZM20.9297 18.6484V18.2383C20.9297 16.6888 21.151 15.263 21.5938 13.9609C22.0365 12.6458 22.681 11.5065 23.5273 10.543C24.3737 9.57943 25.4154 8.83073 26.6523 8.29688C27.8893 7.75 29.3086 7.47656 30.9102 7.47656C32.5117 7.47656 33.9375 7.75 35.1875 8.29688C36.4375 8.83073 37.4857 9.57943 38.332 10.543C39.1914 11.5065 39.8424 12.6458 40.2852 13.9609C40.7279 15.263 40.9492 16.6888 40.9492 18.2383V18.6484C40.9492 20.1849 40.7279 21.6107 40.2852 22.9258C39.8424 24.2279 39.1914 25.3672 38.332 26.3438C37.4857 27.3073 36.444 28.056 35.207 28.5898C33.9701 29.1237 32.5508 29.3906 30.9492 29.3906C29.3477 29.3906 27.9219 29.1237 26.6719 28.5898C25.4349 28.056 24.3867 27.3073 23.5273 26.3438C22.681 25.3672 22.0365 24.2279 21.5938 22.9258C21.151 21.6107 20.9297 20.1849 20.9297 18.6484ZM26.5547 18.2383V18.6484C26.5547 19.5339 26.6328 20.3607 26.7891 21.1289C26.9453 21.8971 27.1927 22.5742 27.5312 23.1602C27.8828 23.7331 28.3385 24.1823 28.8984 24.5078C29.4583 24.8333 30.1419 24.9961 30.9492 24.9961C31.7305 24.9961 32.401 24.8333 32.9609 24.5078C33.5208 24.1823 33.9701 23.7331 34.3086 23.1602C34.6471 22.5742 34.8945 21.8971 35.0508 21.1289C35.2201 20.3607 35.3047 19.5339 35.3047 18.6484V18.2383C35.3047 17.3789 35.2201 16.5716 35.0508 15.8164C34.8945 15.0482 34.6406 14.3711 34.2891 13.7852C33.9505 13.1862 33.5013 12.7174 32.9414 12.3789C32.3815 12.0404 31.7044 11.8711 30.9102 11.8711C30.1159 11.8711 29.4388 12.0404 28.8789 12.3789C28.332 12.7174 27.8828 13.1862 27.5312 13.7852C27.1927 14.3711 26.9453 15.0482 26.7891 15.8164C26.6328 16.5716 26.5547 17.3789 26.5547 18.2383ZM57.7852 7.86719H62.8828V28.2969C62.8828 30.224 62.4531 31.8581 61.5938 33.1992C60.7474 34.5534 59.5625 35.5755 58.0391 36.2656C56.5156 36.9688 54.7448 37.3203 52.7266 37.3203C51.8411 37.3203 50.9036 37.2031 49.9141 36.9688C48.9375 36.7344 48 36.3698 47.1016 35.875C46.2161 35.3802 45.474 34.7552 44.875 34L47.3555 30.6797C48.0065 31.4349 48.7617 32.0208 49.6211 32.4375C50.4805 32.8672 51.431 33.082 52.4727 33.082C53.4883 33.082 54.3477 32.8932 55.0508 32.5156C55.7539 32.151 56.2943 31.6107 56.6719 30.8945C57.0495 30.1914 57.2383 29.3385 57.2383 28.3359V12.75L57.7852 7.86719ZM43.5664 18.6875V18.2773C43.5664 16.6628 43.7617 15.1979 44.1523 13.8828C44.556 12.5547 45.1224 11.4154 45.8516 10.4648C46.5938 9.51432 47.4922 8.77865 48.5469 8.25781C49.6016 7.73698 50.793 7.47656 52.1211 7.47656C53.5273 7.47656 54.7057 7.73698 55.6562 8.25781C56.6068 8.77865 57.388 9.52083 58 10.4844C58.612 11.4349 59.0872 12.5612 59.4258 13.8633C59.7773 15.1523 60.0508 16.5651 60.2461 18.1016V19C60.0508 20.4714 59.7578 21.8385 59.3672 23.1016C58.9766 24.3646 58.4622 25.4714 57.8242 26.4219C57.1862 27.3594 56.3919 28.0885 55.4414 28.6094C54.5039 29.1302 53.3841 29.3906 52.082 29.3906C50.7799 29.3906 49.6016 29.1237 48.5469 28.5898C47.5052 28.056 46.6133 27.3073 45.8711 26.3438C45.1289 25.3802 44.556 24.2474 44.1523 22.9453C43.7617 21.6432 43.5664 20.224 43.5664 18.6875ZM49.1914 18.2773V18.6875C49.1914 19.5599 49.276 20.3737 49.4453 21.1289C49.6146 21.8841 49.875 22.5547 50.2266 23.1406C50.5911 23.7135 51.0404 24.1628 51.5742 24.4883C52.1211 24.8008 52.7656 24.957 53.5078 24.957C54.5365 24.957 55.3763 24.7422 56.0273 24.3125C56.6784 23.8698 57.1667 23.2643 57.4922 22.4961C57.8177 21.7279 58.0065 20.8424 58.0586 19.8398V17.2812C58.0326 16.4609 57.9219 15.7253 57.7266 15.0742C57.5312 14.4102 57.2578 13.8438 56.9062 13.375C56.5547 12.9062 56.099 12.5417 55.5391 12.2812C54.9792 12.0208 54.3151 11.8906 53.5469 11.8906C52.8047 11.8906 52.1602 12.0599 51.6133 12.3984C51.0794 12.724 50.6302 13.1732 50.2656 13.7461C49.9141 14.319 49.6471 14.9961 49.4648 15.7773C49.2826 16.5456 49.1914 17.3789 49.1914 18.2773ZM66.3594 18.6484V18.2383C66.3594 16.6888 66.5807 15.263 67.0234 13.9609C67.4661 12.6458 68.1107 11.5065 68.957 10.543C69.8034 9.57943 70.8451 8.83073 72.082 8.29688C73.319 7.75 74.7383 7.47656 76.3398 7.47656C77.9414 7.47656 79.3672 7.75 80.6172 8.29688C81.8672 8.83073 82.9154 9.57943 83.7617 10.543C84.6211 11.5065 85.2721 12.6458 85.7148 13.9609C86.1576 15.263 86.3789 16.6888 86.3789 18.2383V18.6484C86.3789 20.1849 86.1576 21.6107 85.7148 22.9258C85.2721 24.2279 84.6211 25.3672 83.7617 26.3438C82.9154 27.3073 81.8737 28.056 80.6367 28.5898C79.3997 29.1237 77.9805 29.3906 76.3789 29.3906C74.7773 29.3906 73.3516 29.1237 72.1016 28.5898C70.8646 28.056 69.8164 27.3073 68.957 26.3438C68.1107 25.3672 67.4661 24.2279 67.0234 22.9258C66.5807 21.6107 66.3594 20.1849 66.3594 18.6484ZM71.9844 18.2383V18.6484C71.9844 19.5339 72.0625 20.3607 72.2188 21.1289C72.375 21.8971 72.6224 22.5742 72.9609 23.1602C73.3125 23.7331 73.7682 24.1823 74.3281 24.5078C74.888 24.8333 75.5716 24.9961 76.3789 24.9961C77.1602 24.9961 77.8307 24.8333 78.3906 24.5078C78.9505 24.1823 79.3997 23.7331 79.7383 23.1602C80.0768 22.5742 80.3242 21.8971 80.4805 21.1289C80.6497 20.3607 80.7344 19.5339 80.7344 18.6484V18.2383C80.7344 17.3789 80.6497 16.5716 80.4805 15.8164C80.3242 15.0482 80.0703 14.3711 79.7188 13.7852C79.3802 13.1862 78.931 12.7174 78.3711 12.3789C77.8112 12.0404 77.1341 11.8711 76.3398 11.8711C75.5456 11.8711 74.8685 12.0404 74.3086 12.3789C73.7617 12.7174 73.3125 13.1862 72.9609 13.7852C72.6224 14.3711 72.375 15.0482 72.2188 15.8164C72.0625 16.5716 71.9844 17.3789 71.9844 18.2383Z" fill="white"/>
</svg>
