<svg width="22" height="28" viewBox="0 0 22 28" fill="none" xmlns="http://www.w3.org/2000/svg">
<path d="M11 13.9998C11.7334 13.9998 12.3612 13.7387 12.8834 13.2165C13.4056 12.6943 13.6667 12.0665 13.6667 11.3332C13.6667 10.5998 13.4056 9.97206 12.8834 9.44984C12.3612 8.92761 11.7334 8.6665 11 8.6665C10.2667 8.6665 9.63893 8.92761 9.11671 9.44984C8.59449 9.97206 8.33337 10.5998 8.33337 11.3332C8.33337 12.0665 8.59449 12.6943 9.11671 13.2165C9.63893 13.7387 10.2667 13.9998 11 13.9998ZM11 27.3332C7.42226 24.2887 4.75004 21.4609 2.98337 18.8498C1.21671 16.2387 0.333374 13.8221 0.333374 11.5998C0.333374 8.2665 1.4056 5.61095 3.55004 3.63317C5.69449 1.65539 8.17782 0.666504 11 0.666504C13.8223 0.666504 16.3056 1.65539 18.45 3.63317C20.5945 5.61095 21.6667 8.2665 21.6667 11.5998C21.6667 13.8221 20.7834 16.2387 19.0167 18.8498C17.25 21.4609 14.5778 24.2887 11 27.3332Z" fill="#203ECA"/>
</svg>
