<svg width="28" height="22" viewBox="0 0 28 22" fill="none" xmlns="http://www.w3.org/2000/svg">
<path d="M3.33329 21.6668C2.59996 21.6668 1.97218 21.4057 1.44996 20.8835C0.927737 20.3613 0.666626 19.7335 0.666626 19.0002V3.00016C0.666626 2.26683 0.927737 1.63905 1.44996 1.11683C1.97218 0.594607 2.59996 0.333496 3.33329 0.333496H24.6666C25.4 0.333496 26.0277 0.594607 26.55 1.11683C27.0722 1.63905 27.3333 2.26683 27.3333 3.00016V19.0002C27.3333 19.7335 27.0722 20.3613 26.55 20.8835C26.0277 21.4057 25.4 21.6668 24.6666 21.6668H3.33329ZM14 12.3335L24.6666 5.66683V3.00016L14 9.66683L3.33329 3.00016V5.66683L14 12.3335Z" fill="#203ECA"/>
</svg>
