<svg width="32" height="26" viewBox="0 0 32 26" fill="none" xmlns="http://www.w3.org/2000/svg">
<path fill-rule="evenodd" clip-rule="evenodd" d="M2.71607 11.0578C10.9847 7.45525 16.4984 5.08025 19.2572 3.93277C27.1342 0.656479 28.771 0.0873527 29.8378 0.0685597C30.0724 0.0644265 30.597 0.122576 30.9369 0.398327C31.2238 0.631166 31.3028 0.945698 31.3406 1.16646C31.3783 1.38721 31.4254 1.8901 31.388 2.28305C30.9611 6.76804 29.1141 17.6519 28.1745 22.6752C27.7769 24.8007 26.994 25.5134 26.2361 25.5832C24.5889 25.7347 23.3382 24.4946 21.7428 23.4489C19.2465 21.8124 17.8361 20.7938 15.413 19.1969C12.6126 17.3515 14.428 16.3372 16.0239 14.6796C16.4416 14.2458 23.6989 7.64471 23.8394 7.04588C23.8569 6.97099 23.8732 6.69182 23.7074 6.54441C23.5416 6.397 23.2968 6.44741 23.1201 6.4875C22.8698 6.54433 18.8817 9.18026 11.1561 14.3953C10.0241 15.1726 8.99879 15.5513 8.08014 15.5315C7.0674 15.5096 5.1193 14.9589 3.67109 14.4881C1.8948 13.9107 0.48304 13.6054 0.605973 12.6248C0.670004 12.1141 1.37337 11.5917 2.71607 11.0578Z" fill="#203ECA"/>
</svg>
